<svg xmlns="http://www.w3.org/2000/svg" xmlns:xlink="http://www.w3.org/1999/xlink" viewBox="0,0,256,256" width="512px" height="512px" fill-rule="nonzero"><g transform="translate(-46.08,-46.08) scale(1.36,1.36)"><g fill="#005bac" fill-rule="nonzero" stroke="none" stroke-width="1" stroke-linecap="butt" stroke-linejoin="miter" stroke-miterlimit="10" stroke-dasharray="" stroke-dashoffset="0" font-family="none" font-weight="none" font-size="none" text-anchor="none" style="mix-blend-mode: normal"><g transform="scale(4,4)"><path d="M8,8v48h48v-48zM28.11523,14.5c7.508,0 13.61719,6.10723 13.61719,13.61523c0,3.171 -1.09883,6.0873 -2.92383,8.4043l10.69141,8.98047c0,0 0.90984,1.76448 -0.53516,3.27148c-1.435,1.495 -3.35156,0.69531 -3.35156,0.69531l-9.08203,-10.66797c-2.319,1.831 -5.23902,2.93359 -8.41602,2.93359c-7.508,0 -13.61523,-6.10919 -13.61523,-13.61719c0,-7.508 6.10723,-13.61523 13.61523,-13.61523zM28.11523,17.5c-5.86317,0 -10.61621,4.75304 -10.61621,10.61621c0,5.86317 4.75304,10.61621 10.61621,10.61621c5.86317,0 10.61621,-4.75304 10.61621,-10.61621c0,-5.86317 -4.75304,-10.61621 -10.61621,-10.61621z"></path></g></g></g></svg>